<mxfile host="app.diagrams.net" agent="Mozilla/5.0 (Windows NT 10.0; Win64; x64) AppleWebKit/537.36 (KHTML, like Gecko) Chrome/127.0.0.0 Safari/537.36 OPR/113.0.0.0" version="24.8.3">
  <diagram name="Page-1" id="-ow4DpQ6KdscyZ0m3crN">
    <mxGraphModel dx="1009" dy="581" grid="1" gridSize="10" guides="1" tooltips="1" connect="1" arrows="1" fold="1" page="1" pageScale="1" pageWidth="850" pageHeight="1100" math="0" shadow="0">
      <root>
        <mxCell id="0" />
        <mxCell id="1" parent="0" />
        <mxCell id="L2JsjosqdbN5uO_wockT-7" value="HTTPS/1.1" style="text;html=1;align=center;verticalAlign=middle;whiteSpace=wrap;rounded=0;fontFamily=Times New Roman;fontSize=14;" parent="1" vertex="1">
          <mxGeometry x="330" y="660" width="60" height="30" as="geometry" />
        </mxCell>
        <mxCell id="L2JsjosqdbN5uO_wockT-39" value="TCP" style="text;html=1;align=center;verticalAlign=middle;whiteSpace=wrap;rounded=0;fontFamily=Times New Roman;fontSize=14;" parent="1" vertex="1">
          <mxGeometry x="170" y="820" width="60" height="30" as="geometry" />
        </mxCell>
        <mxCell id="FV3gMRPloSwDk_IOS_Gm-1" value="" style="endArrow=classic;startArrow=classic;html=1;rounded=0;exitX=0;exitY=0;exitDx=85;exitDy=0;exitPerimeter=0;entryX=0.486;entryY=1;entryDx=0;entryDy=0;entryPerimeter=0;fontFamily=Times New Roman;" parent="1" source="cZodlmNFA3RMR0EMtWzO-1" target="cZodlmNFA3RMR0EMtWzO-12" edge="1">
          <mxGeometry width="50" height="50" relative="1" as="geometry">
            <mxPoint x="360" y="220" as="sourcePoint" />
            <mxPoint x="490" y="220" as="targetPoint" />
          </mxGeometry>
        </mxCell>
        <mxCell id="cZodlmNFA3RMR0EMtWzO-1" value="WebServer&lt;br&gt;Docker&amp;nbsp;25.0.3&lt;br&gt;{OS: Linux}" style="verticalAlign=top;align=left;spacingTop=8;spacingLeft=2;spacingRight=12;shape=cube;size=10;direction=south;fontStyle=4;html=1;whiteSpace=wrap;fontFamily=Times New Roman;" parent="1" vertex="1">
          <mxGeometry x="34" y="610" width="270" height="200" as="geometry" />
        </mxCell>
        <mxCell id="cZodlmNFA3RMR0EMtWzO-4" value="Node.js&lt;br&gt;20.12.2" style="shape=module;align=left;spacingLeft=20;align=center;verticalAlign=top;whiteSpace=wrap;html=1;fontFamily=Times New Roman;" parent="1" vertex="1">
          <mxGeometry x="50" y="690" width="210" height="100" as="geometry" />
        </mxCell>
        <mxCell id="cZodlmNFA3RMR0EMtWzO-6" value="Database Server&lt;br&gt;Docker 25.0.3&lt;br&gt;{OS: Linux}" style="verticalAlign=top;align=left;spacingTop=8;spacingLeft=2;spacingRight=12;shape=cube;size=10;direction=south;fontStyle=4;html=1;whiteSpace=wrap;fontFamily=Times New Roman;" parent="1" vertex="1">
          <mxGeometry x="30" y="860" width="280" height="180" as="geometry" />
        </mxCell>
        <mxCell id="cZodlmNFA3RMR0EMtWzO-11" style="edgeStyle=orthogonalEdgeStyle;rounded=0;orthogonalLoop=1;jettySize=auto;html=1;exitX=0;exitY=0;exitDx=0;exitDy=135;exitPerimeter=0;entryX=0.993;entryY=0.478;entryDx=0;entryDy=0;entryPerimeter=0;endArrow=classicThin;endFill=1;startArrow=classicThin;startFill=1;fontFamily=Times New Roman;" parent="1" source="cZodlmNFA3RMR0EMtWzO-6" target="cZodlmNFA3RMR0EMtWzO-1" edge="1">
          <mxGeometry relative="1" as="geometry" />
        </mxCell>
        <mxCell id="cZodlmNFA3RMR0EMtWzO-12" value="WebClient&lt;br&gt;Opera GX&amp;nbsp;LVL6 (core: 112.0.5197.115)" style="verticalAlign=top;align=left;spacingTop=8;spacingLeft=2;spacingRight=12;shape=cube;size=10;direction=south;fontStyle=4;html=1;whiteSpace=wrap;fontFamily=Times New Roman;" parent="1" vertex="1">
          <mxGeometry x="410" y="610" width="270" height="175" as="geometry" />
        </mxCell>
        <mxCell id="cZodlmNFA3RMR0EMtWzO-14" value="React&lt;br&gt;18.3.1" style="shape=module;align=left;spacingLeft=20;align=center;verticalAlign=top;whiteSpace=wrap;html=1;fontFamily=Times New Roman;" parent="1" vertex="1">
          <mxGeometry x="440" y="700" width="170" height="60" as="geometry" />
        </mxCell>
        <mxCell id="ZPZO2M67GNvsnccpbVbs-1" value="SAP CDS&lt;br&gt;8.2.2" style="shape=module;align=left;spacingLeft=20;align=center;verticalAlign=top;whiteSpace=wrap;html=1;fontFamily=Times New Roman;" parent="1" vertex="1">
          <mxGeometry x="100" y="740" width="130" height="40" as="geometry" />
        </mxCell>
        <mxCell id="fgImE45YGMw7FuMPczmh-1" value="&lt;font face=&quot;Times New Roman&quot;&gt;PostgreSQL 16&lt;/font&gt;" style="shape=datastore;whiteSpace=wrap;html=1;" vertex="1" parent="1">
          <mxGeometry x="125" y="890" width="105" height="140" as="geometry" />
        </mxCell>
      </root>
    </mxGraphModel>
  </diagram>
</mxfile>
